<svg width="21" height="24" viewBox="0 0 21 24" fill="none" xmlns="http://www.w3.org/2000/svg">
<ellipse cx="10.5" cy="11.6667" rx="10.5" ry="11.6667" fill="url(#paint0_linear_102_37)"/>
<ellipse cx="10.5" cy="11.6667" rx="8.7" ry="9.66667" fill="url(#paint1_linear_102_37)"/>
<ellipse cx="10.5" cy="11.6667" rx="10.5" ry="11.6667" fill="#FF9255"/>
<ellipse cx="10.5" cy="11.6667" rx="8.7" ry="9.66667" fill="url(#paint2_linear_102_37)"/>
<mask id="mask0_102_37" style="mask-type:alpha" maskUnits="userSpaceOnUse" x="0" y="0" width="21" height="24">
<ellipse cx="10.5" cy="11.6667" rx="10.5" ry="11.6667" fill="url(#paint3_linear_102_37)"/>
</mask>
<g mask="url(#mask0_102_37)">
<path d="M12.75 12.6753C18.39 5.34195 24 5.17529 26.1 6.00862L29.55 9.67529L26.55 25.5086L4.79999 33.0086L-7.35001 26.842L-8.70001 12.1753C-3.90001 15.3975 7.10999 20.0086 12.75 12.6753Z" fill="url(#paint4_linear_102_37)"/>
<path d="M9.60002 11.6609C-2.75901 3.33333 -6.39985 5.86506 -8.27151 7.21193L-10.8715 11.6609L-4.67943 26.3057L18.0394 28.0558L28.5902 18.9539L26.873 4.3347C22.8672 8.69552 17.4689 16.963 9.60002 11.6609Z" fill="url(#paint5_linear_102_37)"/>
</g>
<defs>
<linearGradient id="paint0_linear_102_37" x1="10.5" y1="0" x2="10.5" y2="23.3333" gradientUnits="userSpaceOnUse">
<stop stop-color="#FFC123"/>
<stop offset="1" stop-color="#F8832E"/>
</linearGradient>
<linearGradient id="paint1_linear_102_37" x1="10.5" y1="2" x2="10.5" y2="21.3333" gradientUnits="userSpaceOnUse">
<stop stop-color="#FFBF24"/>
<stop offset="1" stop-color="#F4924B"/>
</linearGradient>
<linearGradient id="paint2_linear_102_37" x1="10.5" y1="2" x2="10.5" y2="21.3333" gradientUnits="userSpaceOnUse">
<stop stop-color="#FFBF24"/>
<stop offset="1" stop-color="#F4924B"/>
</linearGradient>
<linearGradient id="paint3_linear_102_37" x1="10.5" y1="0" x2="10.5" y2="23.3333" gradientUnits="userSpaceOnUse">
<stop stop-color="#FFC123"/>
<stop offset="1" stop-color="#F8832E"/>
</linearGradient>
<linearGradient id="paint4_linear_102_37" x1="10.425" y1="5.66667" x2="10.425" y2="33.0086" gradientUnits="userSpaceOnUse">
<stop stop-color="#FF9D55" stop-opacity="0.6"/>
<stop offset="1" stop-color="#FD8A37" stop-opacity="0"/>
</linearGradient>
<linearGradient id="paint5_linear_102_37" x1="6.91395" y1="2.87969" x2="13.8049" y2="29.1659" gradientUnits="userSpaceOnUse">
<stop stop-color="#FFBD3E" stop-opacity="0.49"/>
<stop offset="1" stop-color="white" stop-opacity="0"/>
</linearGradient>
</defs>
</svg>
